{"accessors" : [{"bufferView" : 0, "byteOffset" : 0, "componentType" : 5123, "count" : 1800, "type" : "SCALAR", "max" : [1501], "min" : [0]}, {"bufferView" : 1, "byteOffset" : 0, "componentType" : 5126, "count" : 1502, "type" : "VEC3", "max" : [28.19580078125, 10.41310977935791, -2.0186617374420166], "min" : [-15.795526504516602, 3.6900057792663574, -15.888243675231934], "name" : "POSITION"}, {"bufferView" : 1, "byteOffset" : 12, "componentType" : 5126, "count" : 1502, "type" : "VEC2", "max" : [1, -0], "min" : [0, -1], "name" : "TEXCOORD_0"}, {"bufferView" : 1, "byteOffset" : 20, "componentType" : 5126, "count" : 1502, "type" : "VEC3", "max" : [0.9701713919639587, 0.9992146492004395, 0.9965317249298096], "min" : [-0.9721595048904419, -0.9991503953933716, -0.9943684935569763], "name" : "NORMAL"}, {"bufferView" : 0, "byteOffset" : 3600, "componentType" : 5123, "count" : 3240, "type" : "SCALAR", "max" : [541], "min" : [0]}, {"bufferView" : 2, "byteOffset" : 0, "componentType" : 5126, "count" : 542, "type" : "VEC3", "max" : [13.550365447998047, 14.139579772949219, -10.649663925170898], "min" : [11.610453605651855, 12.000386238098145, -13.122553825378418], "name" : "POSITION"}, {"bufferView" : 2, "byteOffset" : 12, "componentType" : 5126, "count" : 542, "type" : "VEC2", "max" : [0, -0], "min" : [0, -0], "name" : "TEXCOORD_0"}, {"bufferView" : 2, "byteOffset" : 20, "componentType" : 5126, "count" : 542, "type" : "VEC3", "max" : [0.9989785552024841, 0.9965961575508118, 0.9958209991455078], "min" : [-0.9950444102287292, -0.9880776405334473, -0.9999038577079773], "name" : "NORMAL"}, {"bufferView" : 0, "byteOffset" : 10080, "componentType" : 5123, "count" : 16200, "type" : "SCALAR", "max" : [2701], "min" : [0]}, {"bufferView" : 3, "byteOffset" : 0, "componentType" : 5126, "count" : 2702, "type" : "VEC3", "max" : [41.71345901489258, 12.883631706237793, -4.623041152954102], "min" : [2.7344188690185547, -6.676797389984131, -14.216275215148926], "name" : "POSITION"}, {"bufferView" : 3, "byteOffset" : 12, "componentType" : 5126, "count" : 2702, "type" : "VEC2", "max" : [0, -0], "min" : [0, -0], "name" : "TEXCOORD_0"}, {"bufferView" : 3, "byteOffset" : 20, "componentType" : 5126, "count" : 2702, "type" : "VEC3", "max" : [0.9983745217323303, 0.9995442032814026, 0.9990530610084534], "min" : [-0.9982706904411316, -0.9995622634887695, -0.9976597428321838], "name" : "NORMAL"}, {"bufferView" : 0, "byteOffset" : 42480, "componentType" : 5123, "count" : 19728, "type" : "SCALAR", "max" : [3289], "min" : [0]}, {"bufferView" : 4, "byteOffset" : 0, "componentType" : 5126, "count" : 3290, "type" : "VEC3", "max" : [-1.210349202156067, 4.830152988433838, 15.888243675231934], "min" : [-20.89322853088379, -22.148584365844727, -7.164601802825928], "name" : "POSITION"}, {"bufferView" : 4, "byteOffset" : 12, "componentType" : 5126, "count" : 3290, "type" : "VEC2", "max" : [0, -0], "min" : [0, -0], "name" : "TEXCOORD_0"}, {"bufferView" : 4, "byteOffset" : 20, "componentType" : 5126, "count" : 3290, "type" : "VEC3", "max" : [0.9999776482582092, 0.9992761015892029, 0.9995387196540833], "min" : [-0.999923586845398, -0.9982773661613464, -0.9995142817497253], "name" : "NORMAL"}], "asset" : {"generator" : "Aspose.3D 22.1", "version" : "2.0"}, "buffers" : [{"uri" : "data:application/octet-stream;base64,", "byteLength" : 1392932}], "bufferViews" : [{"buffer" : 0, "byteOffset" : 0, "byteLength" : 81936, "target" : 34963}, {"buffer" : 0, "byteOffset" : 81940, "byteLength" : 57600, "byteStride" : 32, "target" : 34962}, {"buffer" : 0, "byteOffset" : 139544, "byteLength" : 103680, "byteStride" : 32, "target" : 34962}, {"buffer" : 0, "byteOffset" : 243228, "byteLength" : 518400, "byteStride" : 32, "target" : 34962}, {"buffer" : 0, "byteOffset" : 761632, "byteLength" : 631296, "byteStride" : 32, "target" : 34962}], "meshes" : [{"primitives" : [{"attributes" : {"POSITION" : 1, "TEXCOORD_0" : 2, "NORMAL" : 3}, "indices" : 0, "mode" : 4}], "name" : ""}, {"primitives" : [{"attributes" : {"POSITION" : 5, "TEXCOORD_0" : 6, "NORMAL" : 7}, "indices" : 4, "mode" : 4}], "name" : ""}, {"primitives" : [{"attributes" : {"POSITION" : 9, "TEXCOORD_0" : 10, "NORMAL" : 11}, "indices" : 8, "mode" : 4}], "name" : ""}, {"primitives" : [{"attributes" : {"POSITION" : 13, "TEXCOORD_0" : 14, "NORMAL" : 15}, "indices" : 12, "mode" : 4}], "name" : ""}], "nodes" : [{"mesh" : 0, "name" : "t"}, {"mesh" : 1, "name" : "i"}, {"mesh" : 2, "name" : "tin"}, {"mesh" : 3, "name" : "jus"}], "scene" : 0, "scenes" : [{"nodes" : [0, 1, 2, 3]}]}